<?xml version="1.0" standalone="no"?><!DOCTYPE svg PUBLIC "-//W3C//DTD SVG 1.1//EN" "http://www.w3.org/Graphics/SVG/1.1/DTD/svg11.dtd"><svg t="1527774907115" class="icon" style="" viewBox="0 0 1024 1024" version="1.1" xmlns="http://www.w3.org/2000/svg" p-id="1166" xmlns:xlink="http://www.w3.org/1999/xlink" width="200" height="200"><defs><style type="text/css"></style></defs><path d="M832 992H128a96.109 96.109 0 0 1-96-96V448a96.109 96.109 0 0 1 96-96h128c26.33 0 76.72-14.94 118.25-42.626 33.645-22.43 73.75-61 73.75-117.374 0-33.855 5.241-63.053 15.577-86.78 9.353-21.469 22.85-38.682 40.12-51.158C523.96 39.422 548.285 32 576 32s52.041 7.423 72.303 22.062c17.27 12.476 30.767 29.689 40.12 51.158C698.759 128.947 704 158.145 704 192c0 35.379-4.512 70.385-8.884 96H832c35.43 0 75.586 0 108.486 27.417C975.631 344.705 992 397.002 992 480c0 96.187-15.693 218.712-40.955 319.76-13.173 52.692-27.783 95.27-43.423 126.55-9.237 18.474-18.592 32.551-28.6 43.035C864.672 984.378 848.852 992 832 992zM128 416a32.037 32.037 0 0 0-32 32v448a32.037 32.037 0 0 0 32 32h701.606c2.974-2.232 13.313-11.84 27.73-45.357 12.543-29.16 24.851-68.877 35.596-114.856C914.562 675.22 928 564.945 928 480c0-60.834-9.584-99.665-28.486-115.417C884.414 352 860.125 352 832 352H656a32 32 0 0 1-31.045-39.76C625.102 311.65 640 251.083 640 192c0-29.644-5.062-68.639-29.178-86.062C597.066 96 581.21 96 576 96s-21.066 0-34.822 9.938C517.062 123.361 512 162.356 512 192c0 36.29-10.556 70.522-31.374 101.75-17.22 25.83-41.065 49.002-70.876 68.876C354.444 399.496 292.679 416 256 416z" p-id="1167"></path><path d="M256 992a32 32 0 0 1-32-32V384a32 32 0 0 1 64 0v576a32 32 0 0 1-32 32zM948.476 672H672a32 32 0 0 1 0-64h276.476a32 32 0 1 1 0 64zM960 512H704a32 32 0 0 1 0-64h256a32 32 0 0 1 0 64zM917.967 832H640a32 32 0 0 1 0-64h277.967a32 32 0 0 1 0 64z" p-id="1168"></path></svg>